<svg width="600" height="600" viewBox="0 0 600 600" fill="none" xmlns="http://www.w3.org/2000/svg">
<rect x="148" y="52" width="318" height="476" rx="77" fill="#EEEDE3"/>
<path fill-rule="evenodd" clip-rule="evenodd" d="M387 61.43C384.658 62.835 385.09 62.931 393.856 62.965C404.936 63.007 412.527 64.796 422.722 69.77C430.636 73.631 442.08 83.33 445.334 88.935L447.169 92.094L443.349 90.047C441.248 88.921 439.031 88 438.423 88C437.814 88 433.008 86.2 427.742 84C416.299 79.219 414.618 79.021 419.114 82.984C422.928 86.346 422.351 86.612 415.631 84.589L410.943 83.179L415.045 87.28C419.709 91.944 421.45 94.986 422.326 100L422.937 103.5L421.042 99.94C417.982 94.19 410.075 86.07 405.108 83.574C402.573 82.301 397.575 80.759 394 80.148C382.326 78.152 341.754 77.036 271 76.766L201.5 76.5L195 78.835C180.062 84.203 169.315 92.244 161.628 103.807C152.12 118.109 150.261 126.964 148.907 164.392C147.687 198.113 148.352 463.157 149.683 473.5C150.178 477.35 151.73 482.975 153.131 486C154.532 489.025 156.18 492.713 156.793 494.196C158.539 498.418 164.783 504.812 173.467 511.269C188.649 522.559 201.177 527.282 220.5 529.003C235.336 530.325 391.041 530.303 402.026 528.978C413.837 527.553 423.079 524.625 432.976 519.171C448.595 510.563 459.663 497.04 464.625 480.5C466.322 474.842 466.444 464.632 466.765 301.5C467.009 177.837 466.785 125.683 465.981 118.623C463.862 100.015 458.916 88.803 448.049 77.973C436.278 66.242 422.853 61.111 402 60.374C392.078 60.023 388.984 60.241 387 61.43ZM245.341 81.057C228.754 81.459 211.879 82.336 207.841 83.005C200.001 84.304 186 90.097 186 92.042C186 92.714 186.695 92.947 187.629 92.589C194.021 90.136 202.848 89.942 295.5 90.213L393.5 90.5L398.113 93.212C403.901 96.615 408.53 101.828 410.11 106.723C411.8 111.96 412.555 157.198 411.038 162.267C409.35 167.903 404.663 172.608 398.402 174.951C393.015 176.966 391.283 177 293.212 176.994C224.696 176.991 192.249 176.65 189.5 175.904C183.998 174.412 176.148 169.254 173.766 165.564C172.677 163.879 172.052 163.302 172.375 164.282C172.698 165.262 173.63 168.637 174.446 171.782C176.928 181.34 183.862 197.845 186.164 199.673C186.899 200.257 190.089 201.688 193.253 202.854C205.598 207.404 216.777 214.286 223.376 221.399C228.883 227.336 232.24 236.238 232.916 246.698C233.252 251.894 233.52 305.051 233.513 364.823C233.499 485.161 233.929 477.391 226.829 485.457L223.041 489.76L287.271 490.481C322.597 490.877 362.525 491.043 376 490.849C400.382 490.497 400.525 490.482 405.632 487.791C411.622 484.634 416.444 478.968 419.107 471.96C420.938 467.142 421 461.263 421 292.437C421 100.533 421.308 110.368 414.954 99.243C411.311 92.864 402.738 85.884 395.651 83.527C392.818 82.584 385.775 81.428 380 80.958C367.66 79.952 288.506 80.01 245.341 81.057ZM215.492 111.75C213.802 118.067 207.6 136.915 201.613 153.925C200.176 158.009 199 161.721 199 162.175C199 163.433 398.711 163.225 401.066 161.965C402.9 160.983 403 159.617 403 135.419V109.909L400.545 107.455L398.091 105H307.694H217.297L215.492 111.75ZM424 107.441C424 108.234 424.408 109.134 424.907 109.442C425.405 109.751 425.578 109.102 425.29 108.001C424.679 105.666 424 105.371 424 107.441ZM426.546 117.5C426.904 119.15 427.184 195.061 427.169 286.19C427.153 377.32 427.521 453.145 427.985 454.69C428.468 456.301 428.847 434.452 428.871 403.5C428.895 373.8 429.046 297.975 429.207 235C429.485 126.178 429.411 120.351 427.698 117.5L425.896 114.5L426.546 117.5ZM261.956 217.665C260.007 217.902 257.082 219.156 255.456 220.452L252.5 222.808L252.202 249.645C252.038 264.405 252.162 277.51 252.477 278.766C253.371 282.327 259.745 288.751 263.816 290.194C266.512 291.15 275.017 291.5 295.543 291.5C320.877 291.5 323.852 291.326 326.338 289.698C327.851 288.706 329.519 286.765 330.045 285.383C330.57 284.001 331 270.93 331 256.336C331 225.744 330.776 224.716 323.12 220.217L318.5 217.502L292 217.367C277.425 217.293 263.905 217.427 261.956 217.665ZM354.942 217.919C349.885 219.511 347.8 221.228 345.937 225.331C344.24 229.068 344.042 232.145 344.022 255.018C344 280.531 344 280.536 346.473 284.175C350.771 290.5 355.175 291.5 378.719 291.5C398.422 291.5 405.5 291.5 408 289.698C410.254 287.448 412.211 286.792 412.5 258.365C412.929 216.158 405.296 217.595 376.68 217.306C366.131 217.2 356.349 217.476 354.942 217.919ZM243 346.883C243 457.198 243.058 460.782 244.866 461.255C246.566 461.699 246.779 460.889 247.261 452.121C247.552 446.83 247.652 417.975 247.483 388C247.315 358.025 247.137 310.887 247.088 283.25C247.001 233.696 246.972 233 245 233C243.012 233 243 233.667 243 346.883ZM288.224 247.72L284.241 252.439L281.531 249.22C278.586 245.719 276.281 245.104 275.336 247.566C274.966 248.532 275.91 250.352 277.8 252.316L280.865 255.5L278.381 258.365C273.692 263.774 276.98 267.096 281.913 261.934L284.96 258.745L287.954 261.951C290.851 265.052 293.935 265.698 294.711 263.368C294.918 262.745 293.6 260.658 291.781 258.729L288.473 255.222L292.234 250.861C294.302 248.462 295.996 245.986 295.997 245.357C295.999 244.428 293.894 243 292.522 243C292.349 243 290.415 245.124 288.224 247.72ZM359.495 253.007C359.128 253.601 359.385 254.759 360.067 255.581C361.027 256.738 363.238 257.009 369.903 256.787C377.738 256.525 391.5 256.323 391.5 254.5C391.5 252.666 377.738 252.476 369.332 252.214C363.543 252.033 359.917 252.325 359.495 253.007ZM255.766 311.916L252.5 314.832L252.171 337.166C251.763 364.848 252.384 368.407 258.564 373.847C261.002 375.994 264.404 378.031 266.123 378.375C271.141 379.378 317.622 379.094 320.387 378.043C325.524 376.09 326 373.353 325.998 345.8C325.997 317.505 325.621 315.625 319.102 311.27C315.769 309.043 315.163 309 287.368 309H259.032L255.766 311.916ZM348.42 310.885C343.032 314.171 342.5 317.012 342.5 342.5C342.5 369.023 342.8 370.125 351.467 375.487L356.337 378.5L380.918 378.769C408.184 379.068 409.282 378.865 412.274 372.986C413.859 369.872 414.019 366.78 413.774 344C413.382 307.529 414.932 308.998 376.849 309.004C353.813 309.007 351.219 309.179 348.42 310.885ZM277.38 334.452C276.516 336.705 277.843 338 281.015 338H283.912L284.206 345.25C284.435 350.897 284.832 352.5 286 352.5C287.167 352.5 287.565 350.904 287.793 345.305L288.085 338.111L292.293 337.805C295.782 337.552 296.555 337.116 296.82 335.25C297.132 333.051 296.923 333 287.538 333C280.067 333 277.814 333.322 277.38 334.452ZM365.446 340.087C364.168 342.155 366.537 342.846 375.5 343.02C388.036 343.262 388 343.268 388 341C388 339.122 387.333 339 377.059 339C370.259 339 365.864 339.411 365.446 340.087ZM259 396.752C252.455 400.021 252.001 402.249 252.018 431C252.032 455.532 252.118 456.65 254.266 460.441C255.774 463.102 258.116 465.214 261.471 466.941C266.415 469.486 266.583 469.5 291.471 469.5C319.454 469.5 321.15 469.164 324.272 462.999C325.864 459.856 326.017 456.653 325.772 431.5C325.462 399.602 325.474 399.648 317 396.606C310.087 394.124 264.028 394.24 259 396.752ZM347 396.279C345.625 396.966 343.72 399.085 342.767 400.987C341.208 404.098 341.092 407.02 341.619 429.973C342.311 460.104 342.784 462.026 350.649 466.649L355.5 469.5L381.311 469.825C410.349 470.191 411.061 470.044 412.945 463.259C413.548 461.086 413.991 448.346 413.994 433.066C414 408.478 413.857 406.336 411.956 402.409C408.5 395.269 407.193 394.998 376.349 395.015C356.906 395.025 348.81 395.374 347 396.279ZM374.212 418.188C373.546 418.854 373 421.56 373 424.2V429H368.5C364.667 429 364 429.296 364 431C364 432.7 364.667 433 368.45 433H372.9L373.2 438.75C373.46 443.733 373.767 444.5 375.5 444.5C377.197 444.5 377.576 443.667 378 439L378.5 433.5L383 433C386.111 432.654 387.5 432.037 387.5 431C387.5 429.963 386.111 429.346 383 429L378.5 428.5L378 423.078C377.487 417.519 376.35 416.05 374.212 418.188ZM277.209 420.248C274.8 423.151 277.411 424.087 287.084 423.79C295.737 423.523 296.5 423.338 296.5 421.5C296.5 419.667 295.738 419.476 287.402 419.214C280.801 419.007 278.003 419.291 277.209 420.248ZM277 436C277 437.867 277.667 438 287 438C296.333 438 297 437.867 297 436C297 434.133 296.333 434 287 434C277.667 434 277 434.133 277 436Z" fill="black" fill-opacity="0.345"/>
<path fill-rule="evenodd" clip-rule="evenodd" d="M393 60.854C391.119 61.436 392.419 61.795 398.245 62.301C426.52 64.757 449.8 84.664 457.054 112.588C459.091 120.429 459.109 122.054 459.032 293.398C458.976 416.759 458.635 467.615 457.84 470.898C457.228 473.429 455.281 478.65 453.515 482.5C449.162 491.988 434.34 507.423 425.26 511.925C412.724 518.14 415.982 517.971 309 517.968C252.717 517.966 207.59 517.553 202.25 516.991C187.025 515.387 175.616 509.547 163.902 497.363C160.273 493.588 156.549 489.037 155.626 487.25C154.704 485.462 153.698 484 153.392 484C152.278 484 158.684 494.067 163.035 499.156C165.491 502.027 167.5 504.828 167.5 505.381C167.5 506.996 181.878 516.951 189.5 520.613C193.35 522.463 200.325 524.994 205 526.238L213.5 528.5H309.5C399.98 528.5 405.931 528.392 413 526.628C438.838 520.177 457.635 502.934 463.96 479.878C466.025 472.349 466.031 471.762 465.743 291.913C465.422 90.963 466.039 108.402 458.698 93.067C454.687 84.688 442.993 72.738 434.398 68.237C424.09 62.838 400.298 58.595 393 60.854ZM198 78.513C172.953 85.38 155.376 105.731 151.372 132.5C149.686 143.769 149.309 177.024 150.885 175.448C151.097 175.237 152.587 177.862 154.197 181.282C159.482 192.506 166.634 198.086 178.129 199.951C186.862 201.368 187.111 201.301 182.172 198.856C175.475 195.541 165.33 184.93 161.949 177.704C158.125 169.533 157 163.111 157 149.451C157 126.376 161.933 112.679 174.79 100.051C183.467 91.529 192.99 85.955 203.103 83.479C213.208 81.006 257.041 79.851 326.237 80.235C382.987 80.55 388.987 80.741 394 82.386C397.025 83.378 400.962 85.084 402.75 86.177C404.537 87.269 406.014 87.789 406.03 87.332C406.047 86.874 406.525 87.297 407.092 88.271C407.659 89.245 408.545 89.781 409.061 89.462C409.578 89.143 410 89.335 410 89.889C410 90.444 411.046 92.026 412.325 93.406C416.088 97.466 420.229 109.397 421.008 118.421C421.392 122.865 421.598 203.583 421.468 297.796L421.23 469.091L418.08 475.489C416.17 479.369 413.405 483.095 411.055 484.956C403.035 491.309 407.526 491.045 308.557 490.979C240.518 490.934 217.133 491.221 212.988 492.154C204.926 493.968 188.739 493.684 181.044 491.593C173.172 489.454 170.037 487.914 163.251 482.852C158.216 479.097 153 471.301 153 467.533C153 466.69 152.616 466 152.147 466C151.678 466 151.501 463.843 151.754 461.207C152.045 458.182 151.611 454.769 150.578 451.957L148.942 447.5L149.373 457.5C149.614 463.094 150.521 469.511 151.432 472.063C154.534 480.755 166.962 490.521 180 494.511C184.897 496.01 191.311 496.173 238.5 496.001C267.65 495.895 316.925 495.508 348 495.141L404.5 494.474L409.5 491.83C418.606 487.016 421.726 482.185 424.828 468.097C426.355 461.16 426.5 445.642 426.5 289.5C426.5 128.766 426.393 118.11 424.723 112C419.999 94.717 410.779 84.566 396.667 81.112C387.24 78.805 358.551 77.893 281.5 77.452C214.12 77.066 202.751 77.21 198 78.513ZM195 90.93C185.177 92.948 175.583 101.857 172.089 112.204C170.259 117.621 170 120.759 170 137.498C170 156.133 170.065 156.738 172.633 161.89C175.664 167.974 182.053 173.165 189 175.189C192.579 176.232 213.971 176.5 293.5 176.5C387.982 176.5 393.762 176.399 398.239 174.671C404.544 172.239 409.562 166.317 411.085 159.513C412.745 152.092 411.764 114.13 409.749 107.852C407.568 101.058 403.563 96.424 397.15 93.275L391.5 90.5L295 90.355C241.925 90.276 196.925 90.534 195 90.93ZM422.566 97.899C424.292 104.566 425 105.403 425 100.777C425 98.762 424.17 96.199 423.084 94.861C421.175 92.508 421.173 92.518 422.566 97.899ZM198.5 104.734C182.987 105.142 184 103.034 184 134.911C184 153.558 184.329 160.929 185.2 161.8C186.118 162.718 211.562 163 293.629 163C392.18 163 400.991 162.866 402.516 161.341C403.991 159.866 404.137 156.955 403.832 135.091C403.457 108.285 403.193 106.96 397.846 105.096C395.568 104.302 368.08 104.049 302.075 104.213C251.159 104.34 204.55 104.574 198.5 104.734ZM430.654 108.46C430.317 109.337 429.932 187.33 429.797 281.777C429.663 376.225 429.541 457.19 429.526 461.7C429.51 466.901 429.951 470.352 430.733 471.134C432.446 472.846 433.039 471.952 434.605 465.296C435.728 460.524 435.972 430.051 435.984 292.881C435.998 146.9 435.808 125.162 434.452 117.383C432.867 108.295 431.736 105.639 430.654 108.46ZM257.381 219.91C255.665 220.956 253.753 223.271 253.131 225.055C251.647 229.312 251.588 274.777 253.061 278.685C254.513 282.537 259.796 287.86 263.872 289.578C266.52 290.695 273.336 291 295.606 291H323.968L327.234 288.081L330.5 285.163V256.831C330.5 229.026 330.458 228.441 328.243 225.336C327.002 223.596 324.047 221.233 321.677 220.086C317.619 218.121 315.719 218 288.934 218.004C262.752 218.007 260.253 218.158 257.381 219.91ZM351.299 219.96C345.25 223.648 345 225.031 345 254.874V281.847L347.575 284.907C351.79 289.917 357.487 291 379.609 291H406L408 289.5C409.991 286.97 412.5 285.075 412.5 256.831C412.5 216.103 404.761 217.998 375.027 218.004C356.432 218.007 354.199 218.191 351.299 219.96ZM260 221.752L256.5 223.5L256.196 247.191C255.899 270.298 256.693 279 259.098 279C259.659 279 259.804 279.508 259.42 280.13C259.015 280.785 259.244 281.085 259.968 280.844C260.916 280.528 261.248 273.996 261.357 253.464L261.5 226.5L287.641 226.234C308.378 226.022 314.019 225.682 314.926 224.59C315.801 223.534 315.693 222.836 314.463 221.606C313.075 220.218 309.507 220 288.179 220.002C266.687 220.003 263.048 220.229 260 221.752ZM356.445 221.095C354.765 221.569 352.29 223.127 350.945 224.557C348.516 227.141 348.498 227.312 348.163 250.829C347.863 271.847 348.021 274.864 349.57 277.75C350.53 279.538 351.582 280.999 351.907 280.997C352.233 280.996 352.599 269.659 352.72 255.805C352.923 232.601 353.09 230.466 354.832 228.724C356.508 227.047 358.734 226.785 374.466 226.411C384.225 226.179 400.612 225.74 401.104 225.435C402.555 224.539 402.133 222.561 400.25 221.428C398.118 220.146 360.78 219.872 356.445 221.095ZM354 223C353.099 223.582 352.975 223.975 353.691 223.985C354.346 223.993 355.16 223.55 355.5 223C356.267 221.758 355.921 221.758 354 223ZM243.867 234.75C243.466 236.66 243.413 339.853 243.773 414.25C243.972 455.144 244.189 461 245.508 461C246.842 461 247.013 447.934 246.992 347C246.972 251.264 246.749 233 245.601 233C244.849 233 244.068 233.787 243.867 234.75ZM290.815 241.278C291.768 242.426 291.737 242.973 290.67 243.859C289.925 244.477 288.982 244.649 288.575 244.241C288.167 243.834 287.971 243.95 288.139 244.5C288.307 245.05 287.603 246.761 286.573 248.302L284.702 251.104L281.457 247.958C277.793 244.407 274.669 244.335 274.177 247.79C273.961 249.301 274.867 251.007 276.886 252.894L279.919 255.727L277.46 258.038C274.774 260.561 274.332 262.932 276.2 264.8C277.959 266.559 278.672 266.325 281.916 262.93L284.85 259.861L287.858 263.009C289.891 265.136 291.614 266.05 293.173 265.828C296.605 265.34 296.506 262.646 292.906 258.546C290.319 255.599 289.952 254.667 290.998 253.699C292.021 252.752 292.125 252.795 291.492 253.905C290.951 254.853 291.071 255.074 291.862 254.585C292.506 254.187 292.809 253.5 292.535 253.057C292.261 252.614 293.178 251.021 294.571 249.518C297.771 246.066 297.401 244.174 293.053 241.746C290.765 240.468 290.013 240.31 290.815 241.278ZM295.733 241.124C296.412 241.808 297.219 242.115 297.526 241.807C297.834 241.499 297.279 240.94 296.293 240.564C294.868 240.022 294.753 240.136 295.733 241.124ZM358.513 253.338C358.641 254.527 358.802 255.853 358.872 256.285C358.943 256.717 363.613 256.942 369.25 256.785C379.441 256.502 393.5 256.486 393.5 254C393.5 251.501 379.498 251.5 368.891 251.338C358.569 251.181 358.288 251.235 358.513 253.338ZM150.199 275.691C150.089 286.796 150.338 296.092 150.75 296.348C151.162 296.604 151.383 290.668 151.241 283.157C150.762 257.954 150.399 255.351 150.199 275.691ZM157.272 284C157.272 286.475 157.467 287.488 157.706 286.25C157.944 285.012 157.944 282.988 157.706 281.75C157.467 280.512 157.272 281.525 157.272 284ZM256.585 312.059L253 315.207L253.022 339.854C253.048 368.657 253.567 370.904 261.246 375.404L265.676 378H292.883H320.091L322.465 375.626C325.783 372.308 326.271 367.506 325.851 342.294C325.452 318.361 324.969 316.297 318.679 311.605C315.994 309.602 314.515 309.486 288.014 309.206L260.17 308.912L256.585 312.059ZM351.035 310.306C349.055 310.988 346.59 312.956 345.285 314.898C343.067 318.196 343 318.982 343 341.698C343 366.649 343.242 368.103 348.169 372.702C353.382 377.57 356.217 378.002 382.718 377.968C400.621 377.945 407.94 377.598 409.087 376.718C412.7 373.944 413 371.531 412.996 345.316C412.993 321.192 412.86 319.283 410.976 316.192C407.081 309.804 403.483 309.039 377.5 309.078C362.369 309.101 353.314 309.521 351.035 310.306ZM259.083 314.75C256.99 316.463 256.951 317.017 257.223 341L257.5 365.5L260.25 365.816C262.937 366.126 263.991 364.731 262 363.5C260.636 362.657 260.668 323.488 262.035 320.934C263.018 319.098 264.388 319 289.035 319C313.372 319 315 318.887 315 317.2C315 313.216 313.553 313 286.911 313C263.926 313 260.996 313.184 259.083 314.75ZM350.229 313.661C347.715 314.689 345.788 320.092 346.405 324.382C346.731 326.647 347.044 336.6 347.1 346.5C347.184 361.255 347.483 364.815 348.756 366.25C349.611 367.212 350.907 368 351.636 368C353.357 368 354.74 362.747 353.158 362.219C352.33 361.943 352 355.874 352 340.917C352 329.413 352.113 319.908 352.25 319.795C352.387 319.682 363.525 319.344 377 319.045L401.5 318.5V316V313.5L376.5 313.32C362.75 313.221 350.928 313.374 350.229 313.661ZM276.073 334.215C274.952 337.096 277.293 339.216 280.662 338.37C282.946 337.797 283 337.946 283 344.769C283 349.859 283.421 352.104 284.55 353.042C285.829 354.103 286.382 354.046 287.71 352.719C288.913 351.515 289.265 349.458 289.107 344.555L288.894 338H293.514C297.963 338 298.121 337.899 297.816 335.25L297.5 332.5L287.231 332.215C277.336 331.94 276.929 332.013 276.073 334.215ZM365.25 338.646C363.124 339.531 363.818 342.917 366.25 343.523C367.488 343.832 373 343.953 378.5 343.792C388.422 343.502 388.5 343.481 388.5 341V338.5L377.5 338.313C371.45 338.21 365.938 338.36 365.25 338.646ZM149.772 372.75C149.123 377.708 149.751 439.084 150.458 439.792C150.76 440.094 150.902 424.289 150.774 404.67C150.645 385.052 150.477 369 150.401 369C150.325 369 150.042 370.688 149.772 372.75ZM157.079 377.583C157.127 378.748 157.364 378.985 157.683 378.188C157.972 377.466 157.936 376.603 157.604 376.271C157.272 375.939 157.036 376.529 157.079 377.583ZM157.385 404C157.385 410.875 157.545 413.688 157.74 410.25C157.936 406.813 157.936 401.188 157.74 397.75C157.545 394.313 157.385 397.125 157.385 404ZM256.963 398.75C255.128 400.394 253.523 403.109 252.971 405.5C252.463 407.7 252.037 419.527 252.024 431.782C251.994 459.34 253.008 462.761 262.5 467.119C266.041 468.745 269.369 468.957 291.5 468.963C318.405 468.971 319.622 468.769 323.404 463.677C325.414 460.97 325.5 459.716 325.5 433.08C325.5 401.809 325.408 401.344 318.521 398.01C314.674 396.148 312.37 396 287.2 396H260.032L256.963 398.75ZM344.907 398.939L341.882 401.964L342.191 429.308L342.5 456.652L345.184 460.705C346.799 463.144 349.613 465.602 352.25 466.879C356.372 468.874 358.178 469 382.743 469H408.855L410.927 466.365C412.918 463.835 413 462.56 413 434.299C413 403.902 412.876 402.877 408.676 398.674C406.558 396.555 405.758 396.493 377.217 396.207L347.932 395.914L344.907 398.939ZM347.998 399.639C346.514 400.265 345.007 401.539 344.65 402.471C343.561 405.308 343.991 405.643 345.418 403.069C346.579 400.972 346.787 404.042 346.927 425.372C347.017 438.976 347.494 451.169 347.988 452.467C348.481 453.766 349.845 455.133 351.018 455.506C353.476 456.286 355.054 455.27 353.182 454.112C351.32 452.961 351.331 406.041 353.194 404.859C353.912 404.403 364.613 404.024 376.972 404.015L399.444 404L397.197 401.75C395.036 399.586 394.103 399.481 372.823 399C357.47 398.653 349.87 398.849 347.998 399.639ZM258.432 401.075C256.809 402.869 256.675 405.355 256.895 429.724C257.027 444.4 257.371 456.792 257.66 457.26C257.95 457.728 258.891 457.973 259.752 457.805C261.13 457.536 261.289 454.444 261.089 431.852C260.924 413.311 261.181 406.006 262.017 405.49C262.652 405.097 274.916 404.593 289.27 404.371C303.624 404.148 315.546 403.787 315.765 403.569C315.983 403.35 315.654 402.222 315.034 401.063C313.927 398.995 313.382 398.956 287.057 399.033C261.698 399.107 260.111 399.22 258.432 401.075ZM373.311 417.632C372.959 418.55 372.632 421.145 372.585 423.4L372.5 427.5L368 428C364 428.444 363.5 428.778 363.5 431C363.5 433.226 363.965 433.534 367.75 433.807C370.886 434.034 372.036 434.558 372.136 435.807C372.211 436.738 372.35 438.967 372.445 440.759C372.649 444.601 374.073 446.323 376.644 445.835C378.106 445.558 378.606 444.316 379 439.991L379.5 434.5L383.5 434.183C388.275 433.805 389.418 432.893 388.549 430.156C388.055 428.598 386.898 428.037 383.7 427.805L379.5 427.5V421.942C379.5 416.583 379.4 416.376 376.725 416.174C374.919 416.038 373.728 416.546 373.311 417.632ZM275.841 420.297C273.934 423.86 277.152 425.111 287.382 424.784C294.519 424.557 296.503 424.158 297.372 422.778C299.353 419.628 296.672 418.554 286.439 418.398C277.809 418.265 276.835 418.44 275.841 420.297ZM276.375 434.465C276.051 435.309 276.051 436.691 276.375 437.535C276.862 438.804 278.744 439.021 287.232 438.785C297.442 438.502 297.5 438.486 297.5 436C297.5 433.514 297.442 433.498 287.232 433.215C278.744 432.979 276.862 433.196 276.375 434.465ZM170.5 507.382C172.15 508.812 176.2 511.35 179.5 513.023C186.076 516.357 185.276 515.527 177.5 510.949C174.75 509.33 171.375 507.28 170 506.394C168.156 505.205 168.287 505.465 170.5 507.382Z" fill="black" fill-opacity="0.772"/>
<path d="M375.263 241.336C375.743 241.306 375.996 240.459 375.553 240.208C374.041 239.35 373.69 241.943 374.476 242.759C375.141 243.45 376.559 243.462 377.093 242.617C377.69 241.671 376.695 240.416 375.812 240.096C374.377 239.577 374.396 241.285 375.009 242.139C375.517 242.845 376.419 243.174 377.27 243.165C378.746 243.15 378.505 241.594 377.677 240.828C377.188 240.376 376.337 240.214 375.69 240.361C375.061 240.503 375.012 241.221 374.994 241.753C374.96 242.795 375.854 244.244 377.123 243.821C377.619 243.656 377.565 242.959 377.408 242.576C377.024 241.64 376.058 241.035 375.081 240.92C374.349 240.833 373.391 240.884 373.129 241.712C372.854 242.584 373.006 243.681 373.698 244.314C374.535 245.078 377.075 246.038 377.398 244.309C377.613 243.154 377.021 241.987 375.914 241.545C375.074 241.209 374.505 241.969 374.664 242.779C374.854 243.75 376.765 244.302 377.215 243.257C377.898 241.67 375.488 241.128 374.471 241.082C373.696 241.048 373.434 241.469 373.434 242.159" stroke="#8FAD9B" stroke-width="3" stroke-linecap="round"/>
<path d="M375.09 267.185C375.703 267.631 376.393 266.998 376.393 266.355C376.393 264.677 373.619 265.015 374.186 266.89C374.572 268.167 376.717 267.282 375.415 265.937C373.961 264.434 373.89 267.278 374.77 268.095C376.433 269.639 378.315 265.954 376.141 264.738C374.18 263.641 372.206 266.745 373.835 268.095C374.769 268.868 376.765 268.937 377.684 268.083C378.809 267.038 377.363 265.769 376.448 265.334C375.667 264.963 373.558 264.196 373.085 265.414C372.783 266.191 373.33 267.209 374.001 267.597C374.553 267.915 375.533 267.987 376.116 267.701C376.948 267.295 376.823 266.02 376.319 265.414C375.822 264.816 374.635 264.154 373.823 264.4C372.918 264.673 373.003 266.093 373.196 266.804C373.779 268.954 378.157 268.348 378.336 266.275C378.498 264.392 373.886 263.34 373.589 265.242C373.434 266.237 373.955 267.367 374.942 267.701C375.856 268.011 376.824 267.661 376.897 266.607C377.015 264.918 374.336 263.9 373.7 265.66C373.463 266.317 373.806 266.894 374.548 266.761C375.286 266.628 376.116 265.924 376.258 265.168C376.372 264.559 375.963 264 375.323 264C374.792 264 374.725 264.58 374.647 264.971" stroke="#8FAD9B" stroke-width="3" stroke-linecap="round"/>
</svg>
